<svg id="Layer_1_copy" data-name="Layer 1 copy" xmlns="http://www.w3.org/2000/svg" xmlns:xlink="http://www.w3.org/1999/xlink" viewBox="0 0 1000 1000"><defs><style>.cls-1{fill:url(#linear-gradient);}.cls-2{fill:url(#linear-gradient-2);}</style><linearGradient id="linear-gradient" x1="442.93" y1="742.77" x2="442.93" y2="257.11" gradientUnits="userSpaceOnUse"><stop offset="0" stop-color="#7951a1"/><stop offset="1" stop-color="#504c9f"/></linearGradient><linearGradient id="linear-gradient-2" x1="588.68" y1="743.55" x2="588.68" y2="534.89" xlink:href="#linear-gradient"/></defs><title>logo-gradient</title><path class="cls-1" d="M539.05,280.11A14.32,14.32,0,0,1,552,300.49l-192.2,411a14.39,14.39,0,0,1-13,8.26,14.32,14.32,0,0,1-12.94-20.39l192.2-411a14.37,14.37,0,0,1,13-8.26m0-23a37.33,37.33,0,0,0-33.83,21.51L313,689.64a37.31,37.31,0,1,0,67.6,31.61l192.19-411a37.31,37.31,0,0,0-18-49.61h0a37.17,37.17,0,0,0-15.78-3.52Z"/><path class="cls-2" d="M655.7,557.89a14.31,14.31,0,0,1,10.12,24.43L625.19,623l-16.26,16.26,16.26,16.26,40.63,40.63a14.32,14.32,0,0,1-20.24,20.25L605,675.72l-16.27-16.26-16.26,16.26-40.63,40.64a14.32,14.32,0,1,1-20.24-20.25l40.63-40.63,16.26-16.26L552.18,623l-40.63-40.64a14.31,14.31,0,0,1,20.24-20.24l40.63,40.63L588.68,619,605,602.71l40.63-40.63a14.23,14.23,0,0,1,10.12-4.19m0-23a37.16,37.16,0,0,0-26.38,10.93l-40.64,40.63-40.63-40.63a37.31,37.31,0,0,0-52.77,0h0a37.32,37.32,0,0,0,0,52.77l40.64,40.63-40.64,40.63a37.32,37.32,0,0,0,0,52.77h0a37.31,37.31,0,0,0,52.77,0L588.68,692l40.64,40.63a37.31,37.31,0,0,0,52.77,0h0a37.32,37.32,0,0,0,0-52.77l-40.64-40.63,40.64-40.63a37.32,37.32,0,0,0,0-52.77h0a37.2,37.2,0,0,0-26.39-10.93Z"/></svg>