<svg id="Layer_1_copy_2" data-name="Layer 1 copy 2" xmlns="http://www.w3.org/2000/svg" viewBox="0 0 383.51 486.44"><defs><style>.cls-1{fill:#231f20;}</style></defs><title>logo</title><path class="cls-1" d="M537.79,279.78a14.32,14.32,0,0,1,12.94,20.38l-192.2,411a14.37,14.37,0,0,1-13,8.26,14.32,14.32,0,0,1-12.94-20.39L524.8,288a14.37,14.37,0,0,1,13-8.26m0-23A37.32,37.32,0,0,0,504,278.3l-192.19,411a37.31,37.31,0,1,0,67.6,31.61l192.19-411a37.31,37.31,0,0,0-18-49.61h0a37.17,37.17,0,0,0-15.78-3.52Z" transform="translate(-308.25 -256.78)"/><path class="cls-1" d="M654.44,557.56A14.31,14.31,0,0,1,664.56,582l-40.63,40.64-16.26,16.26,16.26,16.26,40.63,40.64A14.31,14.31,0,0,1,644.32,716L603.69,675.4l-16.27-16.27L571.16,675.4,530.53,716a14.31,14.31,0,1,1-20.24-20.24l40.63-40.64,16.26-16.26-16.26-16.26L510.29,582a14.31,14.31,0,0,1,20.24-20.24l40.63,40.63,16.26,16.27,16.27-16.27,40.63-40.63a14.23,14.23,0,0,1,10.12-4.19m0-23a37.16,37.16,0,0,0-26.38,10.93l-40.64,40.63-40.63-40.63a37.31,37.31,0,0,0-52.77,0h0a37.32,37.32,0,0,0,0,52.77l40.64,40.63L494,679.52a37.32,37.32,0,0,0,0,52.77h0a37.31,37.31,0,0,0,52.77,0l40.63-40.63,40.64,40.63a37.31,37.31,0,0,0,52.77,0h0a37.32,37.32,0,0,0,0-52.77l-40.64-40.63,40.64-40.63a37.32,37.32,0,0,0,0-52.77h0a37.2,37.2,0,0,0-26.39-10.93Z" transform="translate(-308.25 -256.78)"/></svg>